<svg xmlns="http://www.w3.org/2000/svg" xmlns:xlink="http://www.w3.org/1999/xlink" version="1.1" width="256" height="256" viewBox="0 0 256 256" xml:space="preserve">
<g style="stroke: none; stroke-width: 0; stroke-dasharray: none; stroke-linecap: butt; stroke-linejoin: miter; stroke-miterlimit: 10; fill: none; fill-rule: nonzero; opacity: 1;" transform="translate(1.4065934065934016 1.4065934065934016) scale(2.81 2.81)">
	<polygon points="60.67,88.38 88.72,60.33 60.67,60.33 " style="stroke: none; stroke-width: 1; stroke-dasharray: none; stroke-linecap: butt; stroke-linejoin: miter; stroke-miterlimit: 10; fill: rgb(237,178,62); fill-rule: nonzero; opacity: 1;" transform="  matrix(1 0 0 1 0 0) "/>
	<path d="M 0 4.135 v 81.73 C 0 88.149 1.851 90 4.135 90 h 52.844 c 2.781 0 5.036 -2.255 5.036 -5.036 V 63.887 c 0 -1.034 0.838 -1.872 1.872 -1.872 h 21.077 c 2.781 0 5.036 -2.255 5.036 -5.036 V 4.135 C 90 1.851 88.149 0 85.865 0 H 4.135 C 1.851 0 0 1.851 0 4.135 z" style="stroke: none; stroke-width: 1; stroke-dasharray: none; stroke-linecap: butt; stroke-linejoin: miter; stroke-miterlimit: 10; fill: rgb(255,202,66); fill-rule: nonzero; opacity: 1;" transform=" matrix(1 0 0 1 0 0) " stroke-linecap="round"/>
	<path d="M 83.325 0 v 56.989 c 0 2.776 -2.25 5.027 -5.027 5.027 h -2.416 v 4.962 h 3.721 l 6.044 -5.031 C 88.103 61.61 90 59.526 90 56.979 V 4.135 C 90 1.851 88.149 0 85.865 0 H 83.325 z" style="stroke: none; stroke-width: 1; stroke-dasharray: none; stroke-linecap: butt; stroke-linejoin: miter; stroke-miterlimit: 10; fill: rgb(237,178,62); fill-rule: nonzero; opacity: 1;" transform=" matrix(1 0 0 1 0 0) " stroke-linecap="round"/>
</g>
</svg>