<svg xmlns="http://www.w3.org/2000/svg" xmlns:xlink="http://www.w3.org/1999/xlink" version="1.1" width="256" height="256" viewBox="0 0 256 256" xml:space="preserve">
<g style="stroke: none; stroke-width: 0; stroke-dasharray: none; stroke-linecap: butt; stroke-linejoin: miter; stroke-miterlimit: 10; fill: none; fill-rule: nonzero; opacity: 1;" transform="translate(1.4065934065934016 1.4065934065934016) scale(2.81 2.81)">
	<path d="M 56.071 28.674 c -3.776 -3.776 -8.737 -5.665 -13.699 -5.665 c -4.961 0 -9.922 1.888 -13.699 5.665 c -7.553 7.554 -7.553 19.844 0 27.397 c 7.553 7.552 19.844 7.552 27.397 0 C 63.624 48.518 63.624 36.228 56.071 28.674 z M 52.372 44.373 h -8 v 8 c 0 1.104 -0.896 2 -2 2 s -2 -0.896 -2 -2 v -8 h -8 c -1.104 0 -2 -0.896 -2 -2 s 0.896 -2 2 -2 h 8 v -8 c 0 -1.104 0.896 -2 2 -2 s 2 0.896 2 2 v 8 h 8 c 1.104 0 2 0.896 2 2 S 53.477 44.373 52.372 44.373 z" style="stroke: none; stroke-width: 1; stroke-dasharray: none; stroke-linecap: butt; stroke-linejoin: miter; stroke-miterlimit: 10; fill: rgb(0,0,0); fill-rule: nonzero; opacity: 1;" transform=" matrix(1 0 0 1 0 0) " stroke-linecap="round"/>
	<path d="M 45 0 C 20.147 0 0 20.147 0 45 c 0 24.853 20.147 45 45 45 s 45 -20.147 45 -45 C 90 20.147 69.853 0 45 0 z M 70.414 70.414 C 70.023 70.805 69.512 71 69 71 s -1.023 -0.195 -1.414 -0.586 L 57.414 60.242 c -4.333 3.651 -9.683 5.492 -15.041 5.492 c -5.985 0 -11.97 -2.277 -16.527 -6.834 c -9.113 -9.113 -9.113 -23.941 0 -33.054 c 9.112 -9.112 23.939 -9.113 33.054 0 c 8.635 8.635 9.073 22.394 1.342 31.568 l 10.172 10.172 C 71.195 68.367 71.195 69.633 70.414 70.414 z" style="stroke: none; stroke-width: 1; stroke-dasharray: none; stroke-linecap: butt; stroke-linejoin: miter; stroke-miterlimit: 10; fill: rgb(0,0,0); fill-rule: nonzero; opacity: 1;" transform=" matrix(1 0 0 1 0 0) " stroke-linecap="round"/>
</g>
</svg>